<svg width="40" height="40" viewBox="0 0 40 40" xmlns="http://www.w3.org/2000/svg">
  <path d="M0 0H1V1H0V0Z" transform="translate(19 19)" fill="#4299E1" fill-opacity="0.5"/>
  <path d="M0 0H1V1H0V0Z" transform="translate(19 39)" fill="#4299E1" fill-opacity="0.2"/>
  <path d="M0 0H1V1H0V0Z" transform="translate(39 19)" fill="#4299E1" fill-opacity="0.2"/>
  <path d="M0 0H1V1H0V0Z" transform="translate(39 39)" fill="#4299E1" fill-opacity="0.1"/>
  <path d="M0 0H1V1H0V0Z" transform="translate(19)" fill="#4299E1" fill-opacity="0.2"/>
  <path d="M0 0H1V1H0V0Z" transform="translate(39)" fill="#4299E1" fill-opacity="0.1"/>
  <path d="M0 0H1V1H0V0Z" transform="translate(0 19)" fill="#4299E1" fill-opacity="0.2"/>
  <path d="M0 0H1V1H0V0Z" transform="translate(0 39)" fill="#4299E1" fill-opacity="0.1"/>
  <path d="M0 0H1V1H0V0Z" fill="#4299E1" fill-opacity="0.1"/>
</svg>
